<svg width="200" height="200" viewBox="0 0 200 200" stroke="#888888" fill="none" stroke-width="2.5" stroke-linecap="round" stroke-linejoin="round"  xmlns="http://www.w3.org/2000/svg">
    <path fill="#cccccc" stroke="none" transform="translate(-10,-10)" d="M81.044 67.75c7.34-3.931 13.473-10.337 19.967-20.723l45.187 26.089v52.108c-12.167-.143-20.983 1.409-28.184 5.673-7.176 4.249-12.55 11.075-18.091 21.038L54.8 125.884V73.667c10.649-.642 18.96-2.016 26.243-5.917Z"/><path d="M81.044 67.75c7.34-3.931 13.473-10.337 19.967-20.723l45.187 26.089v52.108c-12.167-.143-20.983 1.409-28.184 5.673-7.176 4.249-12.55 11.075-18.091 21.038L54.8 125.884V73.667c10.649-.642 18.96-2.016 26.243-5.917Z"/>
</svg>