<svg width="200" height="200" viewBox="0 0 200 200" stroke="#888888" fill="none" stroke-width="2.5" stroke-linecap="round" stroke-linejoin="round"  xmlns="http://www.w3.org/2000/svg">
    <path fill="#cccccc" stroke="none" transform="translate(-10,-10)" d="m100.148 73.812 1.485 3.167 1.271-3.26c5.639-14.465 13.744-22.412 22.179-25.902 8.449-3.495 17.448-2.611 25.056 1.007 7.625 3.627 13.739 9.947 16.429 17.146 2.659 7.118 2.006 15.156-3.962 22.54l-65.071 65.7-60.123-65.624C31.057 79 30.296 69.998 32.91 62.718c2.636-7.345 8.781-13.145 16.591-16.095 15.505-5.858 37.688-.442 50.647 27.189Z"/><path d="m100.148 73.812 1.485 3.167 1.271-3.26c5.639-14.465 13.744-22.412 22.179-25.902 8.449-3.495 17.448-2.611 25.056 1.007 7.625 3.627 13.739 9.947 16.429 17.146 2.659 7.118 2.006 15.156-3.962 22.54l-65.071 65.7-60.123-65.624C31.057 79 30.296 69.998 32.91 62.718c2.636-7.345 8.781-13.145 16.591-16.095 15.505-5.858 37.688-.442 50.647 27.189Z"/>
</svg>