<svg width="200" height="200" viewBox="0 0 200 200" stroke="#888888" fill="none" stroke-width="2.5" stroke-linecap="round" stroke-linejoin="round"  xmlns="http://www.w3.org/2000/svg">
    <path fill="#cccccc" stroke="none" transform="translate(-10,-10)" d="M81.627 78.457c6.439-4.545 11.992-10.068 18.015-17.845 5.734 8.766 11.251 14.663 17.813 19.175 6.659 4.58 14.314 7.677 24.154 10.954l-15.707 48.342c-10.409-5.214-18.728-7.863-26.91-7.835-8.148.029-15.976 2.71-25.414 7.783l-15.72-48.38c9.714-3.951 17.176-7.539 23.77-12.194Z"/><path d="M81.627 78.457c6.439-4.545 11.992-10.068 18.015-17.845 5.734 8.766 11.251 14.663 17.813 19.175 6.659 4.58 14.314 7.677 24.154 10.954l-15.707 48.342c-10.409-5.214-18.728-7.863-26.91-7.835-8.148.029-15.976 2.71-25.414 7.783l-15.72-48.38c9.714-3.951 17.176-7.539 23.77-12.194Z"/>
</svg>