<svg xmlns="http://www.w3.org/2000/svg" version="1.1" xmlns:xlink="http://www.w3.org/1999/xlink" xmlns:svgjs="http://svgjs.dev/svgjs" viewBox="0 0 1422 800"><defs><filter id="llleaves-blur-2" x="-100%" y="-100%" width="400%" height="400%"><feGaussianBlur in="SourceGraphic" stdDeviation="2"></feGaussianBlur></filter><filter id="llleaves-blur-3" x="-100%" y="-100%" width="400%" height="400%"><feGaussianBlur in="SourceGraphic" stdDeviation="4"></feGaussianBlur></filter><filter id="llleaves-blur-4" x="-100%" y="-100%" width="400%" height="400%"><feGaussianBlur in="SourceGraphic" stdDeviation="12"></feGaussianBlur></filter></defs><g fill="hsl(230, 55%, 40%)"><path d="M696 378H746C774 378 796 400 796 428H746C718 428 696 406 696 378Z " transform="matrix(-0.36389702093120063,-0.21009604299193163,0.21009604299193163,-0.36389702093120063,932.7984722889273,706.3821475072548)" opacity="0.64"></path><path d="M260 608H310C338 608 360 630 360 658H310C282 658 260 636 260 608Z " transform="matrix(-0.289799720928929,-0.3453698585498505,0.3453698585498505,-0.289799720928929,181.21879302591265,923.5078794984656)" opacity="0.69"></path><path d="M11 543H61C89 543 111 565 111 593H61C33 593 11 571 11 543Z " transform="matrix(-0.25767975163942936,-0.38202594215667435,0.38202594215667435,-0.25767975163942936,-140.27227029498587,737.665681402753)" opacity="0.71"></path><path d="M15 146H65C93 146 115 168 115 196H65C37 196 15 174 15 146Z " transform="matrix(-0.3051985717965767,-0.3272853987388701,0.3272853987388701,-0.3051985717965767,28.8721039824307,244.46250669524116)" opacity="0.69"></path><path d="M1288 446H1338C1366 446 1388 468 1388 496H1338C1310 496 1288 474 1288 446Z " transform="matrix(-0.38470948795042226,-0.06783466246019759,0.06783466246019759,-0.38470948795042226,1820.7911688589115,742.9609471963934)" filter="url(#llleaves-blur-2)" opacity="0.60"></path><path d="M5 695H55C83 695 105 717 105 745H55C27 745 5 723 5 695Z " transform="matrix(-0.2578622229766951,-0.38229646703917686,0.38229646703917686,-0.2578622229766951,-206.0710340044891,926.6871062303751)" opacity="0.71"></path><path d="M502 493H552C580 493 602 515 602 543H552C524 543 502 521 502 493Z " transform="matrix(-0.34516490551601786,-0.26010041250494337,0.26010041250494337,-0.34516490551601786,607.7990141672813,840.3708487600261)" opacity="0.66"></path><path d="M504 172H554C582 172 604 194 604 222H554C526 222 504 200 504 172Z " transform="matrix(-0.34516490551601786,-0.26010041250494337,0.26010041250494337,-0.34516490551601786,693.9815763924,409.09311491439416)" opacity="0.66"></path><path d="M591 40H641C669 40 691 62 691 90H641C613 90 591 68 591 40Z " transform="matrix(-0.3845084393827656,-0.09586872126765306,0.09586872126765306,-0.3845084393827656,881.2384427619553,151.44489889244537)" filter="url(#llleaves-blur-2)" opacity="0.61"></path><path d="M277 359H327C355 359 377 381 377 409H327C299 409 277 387 277 359Z " transform="matrix(-0.3003040589800444,-0.33352144615724116,0.33352144615724116,-0.3003040589800444,297.12719196209395,608.3782715417549)" opacity="0.69"></path><path d="M400 576H450C478 576 500 598 500 626H450C422 626 400 604 400 576Z " transform="matrix(-0.32657411519457447,-0.2940486540841835,0.2940486540841835,-0.32657411519457447,420.23511073296424,929.5929375698219)" opacity="0.67"></path><path d="M133 573H183C211 573 233 595 233 623H183C155 623 133 601 133 573Z " transform="matrix(-0.2688431466211856,-0.3700308464519806,0.3700308464519806,-0.2688431466211856,10.919849653392589,826.4838465801815)" opacity="0.70"></path><path d="M233 720H283C311 720 333 742 333 770H283C255 770 233 748 233 720Z " transform="matrix(-0.2849214049536546,-0.3518486328132403,0.3518486328132403,-0.2849214049536546,101.50552615602027,1056.8396097766197)" opacity="0.70"></path><path d="M1006 373H1056C1084 373 1106 395 1106 423H1056C1028 423 1006 401 1006 373Z " transform="matrix(-0.3734175670993499,-0.182127916617332,0.182127916617332,-0.3734175670993499,1377.8420400432153,738.947271653444)" opacity="0.64"></path><path d="M536 368H586C614 368 636 390 636 418H586C558 418 536 396 536 368Z " transform="matrix(-0.34783084034438483,-0.25271389806203837,0.25271389806203837,-0.34783084034438483,690.5123105034285,677.7878645196977)" opacity="0.66"></path><path d="M35 31H85C113 31 135 53 135 81H85C57 81 35 59 35 31Z " transform="matrix(-0.38402114329521847,-0.0677132887254587,0.0677132887254587,-0.38402114329521847,113.84985301146789,83.26081356619622)" filter="url(#llleaves-blur-2)" opacity="0.60"></path><path d="M945 141H995C1023 141 1045 163 1045 191H995C967 191 945 169 945 141Z " transform="matrix(-0.37508379026733,-0.17490444385145923,0.17490444385145923,-0.37508379026733,1339.174233636651,402.29383081657875)" opacity="0.64"></path><path d="M193 41H243C271 41 293 63 293 91H243C215 91 193 69 193 41Z " transform="matrix(-0.38289709289056584,-0.12441080711046569,0.12441080711046569,-0.38289709289056584,327.8328803031168,121.50303425862052)" opacity="0.62"></path><path d="M1035 252H1085C1113 252 1135 274 1135 302H1085C1057 302 1035 280 1035 252Z " transform="matrix(-0.372742958232316,-0.18179888788834406,0.18179888788834406,-0.372742958232316,1439.0678177369916,577.5015927892048)" opacity="0.64"></path><path d="M637 489H687C715 489 737 511 737 539H687C659 539 637 517 637 489Z " transform="matrix(-0.3622582742874118,-0.21766673093619002,0.21766673093619002,-0.3622582742874118,823.9907347342503,849.7377971368923)" opacity="0.65"></path><path d="M15 402H65C93 402 115 424 115 452H65C37 452 15 430 15 402Z " transform="matrix(-0.25767975163942936,-0.38202594215667435,0.38202594215667435,-0.25767975163942936,-81.37589344433704,561.8609401902202)" opacity="0.71"></path><path d="M327 32H377C405 32 427 54 427 82H377C349 82 327 60 327 32Z " transform="matrix(-0.3837465149601852,-0.05393205552663821,0.05393205552663821,-0.3837465149601852,518.5983089749715,99.20593628627316)" filter="url(#llleaves-blur-2)" opacity="0.59"></path><path d="M799 716H849C877 716 899 738 899 766H849C821 766 799 744 799 716Z " transform="matrix(-0.369081551319215,-0.19624414188867675,0.19624414188867675,-0.369081551319215,1016.9333279305041,1181.1007059910248)" opacity="0.64"></path><path d="M1289 712H1339C1367 712 1389 734 1389 762H1339C1311 762 1289 740 1289 712Z " transform="matrix(-0.38470948795042226,-0.06783466246019759,0.06783466246019759,-0.38470948795042226,1804.1318581324497,1111.3615056536657)" filter="url(#llleaves-blur-2)" opacity="0.60"></path><path d="M1160 319H1210C1238 319 1260 341 1260 369H1210C1182 369 1160 347 1160 319Z " transform="matrix(-0.3788652797490376,-0.15307150907698452,0.15307150907698452,-0.3788652797490376,1615.7703893738528,659.5461822168203)" opacity="0.63"></path><path d="M1168 37H1218C1246 37 1268 59 1268 87H1218C1190 87 1168 65 1168 37Z " transform="matrix(-0.3832502097345401,-0.12452554172814455,0.12452554172814455,-0.3832502097345401,1677.0781718695248,237.43362282842156)" opacity="0.62"></path><path d="M964 713H1014C1042 713 1064 735 1064 763H1014C986 763 964 741 964 713Z " transform="matrix(-0.3706704569533557,-0.1888660311934636,0.1888660311934636,-0.3706704569533557,1250.4767123299266,1203.0649528617487)" opacity="0.64"></path><path d="M417 281H467C495 281 517 303 517 331H467C439 331 417 309 417 281Z " transform="matrix(-0.32657411519457447,-0.2940486540841835,0.2940486540841835,-0.32657411519457447,529.5312236461061,543.2524007068535)" opacity="0.67"></path><path d="M1314 579H1364C1392 579 1414 601 1414 629H1364C1336 629 1314 607 1314 579Z " transform="matrix(-0.38247717464848646,-0.04696229194459806,0.04696229194459806,-0.38247717464848646,1857.3336418859985,899.0727797001176)" filter="url(#llleaves-blur-2)" opacity="0.59"></path><path d="M895 261H945C973 261 995 283 995 311H945C917 311 895 289 895 261Z " transform="matrix(-0.37153669444231757,-0.18930740123939585,0.18930740123939585,-0.37153669444231757,1241.960259493523,571.1549887817318)" opacity="0.64"></path><path d="M350 147H400C428 147 450 169 450 197H400C372 197 350 175 350 147Z " transform="matrix(-0.34167408990938186,-0.26694505539596364,0.26694505539596364,-0.34167408990938186,490.755086435647,337.54596562279914)" opacity="0.67"></path><path d="M1185 581H1235C1263 581 1285 603 1285 631H1235C1207 631 1185 609 1185 581Z " transform="matrix(-0.38158587991603726,-0.138885902105715,0.138885902105715,-0.38158587991603726,1622.0937050202429,1008.7651323296766)" opacity="0.62"></path><path d="M804 147H854C882 147 904 169 904 197H854C826 197 804 175 804 147Z " transform="matrix(-0.3720677273884583,-0.18146955580098983,0.18146955580098983,-0.3720677273884583,1140.533075591973,390.9706497648601)" opacity="0.64"></path><path d="M461 42H511C539 42 561 64 561 92H511C483 92 461 70 461 42Z " transform="matrix(-0.38479325410149184,-0.09593973355265344,0.09593973355265344,-0.38479325410149184,701.2013906978345,141.80635187020584)" filter="url(#llleaves-blur-2)" opacity="0.61"></path><path d="M396 422H446C474 422 496 444 496 472H446C418 472 396 450 396 422Z " transform="matrix(-0.32657411519457447,-0.2940486540841835,0.2940486540841835,-0.32657411519457447,460.2123070011502,724.1243292135207)" opacity="0.67"></path><path d="M873 32H923C951 32 973 54 973 82H923C895 82 873 60 873 32Z " transform="matrix(-0.3811230366739475,-0.13871744094246305,0.13871744094246305,-0.3811230366739475,1266.869668716333,206.7602110803084)" opacity="0.62"></path><path d="M789 493H839C867 493 889 515 889 543H839C811 543 789 521 789 493Z " transform="matrix(-0.369081551319215,-0.19624414188867675,0.19624414188867675,-0.369081551319215,1047.0049560584869,873.8330786279532)" opacity="0.64"></path><path d="M730 34H780C808 34 830 56 830 84H780C752 84 730 62 730 34Z " transform="matrix(-0.3828555761473133,-0.11705069619576598,0.11705069619576598,-0.3828555761473133,1071.721358319354,172.88802202538895)" opacity="0.61"></path><path d="M1302 316H1352C1380 316 1402 338 1402 366H1352C1324 366 1302 344 1302 316Z " transform="matrix(-0.38470948795042226,-0.06783466246019759,0.06783466246019759,-0.38470948795042226,1848.9956078100436,563.8983990372811)" filter="url(#llleaves-blur-2)" opacity="0.60"></path></g><g fill="none" stroke-width="3" stroke="hsl(230, 55%, 40%)"><path d="M713 605H763C791 605 813 627 813 655H763C735 655 713 633 713 605Z " transform="matrix(-0.36389702093120063,-0.21009604299193163,0.21009604299193163,-0.36389702093120063,908.2929198855892,1019.5584039895002)" opacity="0.64"></path><path d="M273 490H323C351 490 373 512 373 540H323C295 540 273 518 273 490Z " transform="matrix(-0.289799720928929,-0.3453698585498505,0.3453698585498505,-0.289799720928929,238.73983270687108,775.80132059)" opacity="0.69"></path><path d="M602 267H652C680 267 702 289 702 317H652C624 317 602 295 602 267Z " transform="matrix(-0.3597061515489702,-0.22476934979620322,0.22476934979620322,-0.3597061515489702,820.8957606694373,543.5838123194238)" opacity="0.65"></path><path d="M1303 44H1353C1381 44 1403 66 1403 94H1353C1325 94 1303 72 1303 44Z " transform="matrix(-0.3828687888271133,-0.047010376119564115,0.047010376119564115,-0.3828687888271133,1867.7777553308347,159.02298531884105)" filter="url(#llleaves-blur-2)" opacity="0.59"></path><path d="M559 606H609C637 606 659 628 659 656H609C581 656 559 634 559 606Z " transform="matrix(-0.3504623043259521,-0.24539634734737684,0.24539634734737684,-0.3504623043259521,667.58644815831,1001.5880895642283)" opacity="0.66"></path><path d="M489 711H539C567 711 589 733 589 761H539C511 761 489 739 489 711Z " transform="matrix(-0.34516490551601786,-0.26010041250494337,0.26010041250494337,-0.34516490551601786,533.6099804694953,1130.2354927999536)" opacity="0.66"></path><path d="M850 379H900C928 379 950 401 950 429H900C872 429 850 407 850 379Z " transform="matrix(-0.3684177378772534,-0.1958911860207221,0.1958911860207221,-0.3684177378772534,1152.4359249371562,729.1428335210603)" opacity="0.64"></path><path d="M876 603H926C954 603 976 625 976 653H926C898 653 876 631 876 603Z " transform="matrix(-0.37153669444231757,-0.18930740123939585,0.18930740123939585,-0.37153669444231757,1151.1579310752454,1036.623697657456)" opacity="0.64"></path><path d="M1021 31H1071C1099 31 1121 53 1121 81H1071C1043 81 1021 59 1021 31Z " transform="matrix(-0.3754613734230688,-0.16716617367329006,0.16716617367329006,-0.3754613734230688,1463.7578252104024,256.0608089157855)" opacity="0.63"></path><path d="M658 152H708C736 152 758 174 758 202H708C680 202 658 180 658 152Z " transform="matrix(-0.3710115483861458,-0.18903982595907468,0.18903982595907468,-0.3710115483861458,937.216127062635,376.5092408433727)" opacity="0.64"></path><path d="M1125 711H1175C1203 711 1225 733 1225 761H1175C1147 761 1125 739 1125 711Z " transform="matrix(-0.3780597288653538,-0.16047683392637394,0.16047683392637394,-0.3780597288653538,1501.1092316469794,1202.8122403083898)" opacity="0.63"></path><path d="M948 487H998C1026 487 1048 509 1048 537H998C970 537 948 515 948 487Z " transform="matrix(-0.3710271591093212,-0.18904778001981756,0.18904778001981756,-0.3710271591093212,1271.492641420956,890.6355899237504)" opacity="0.64"></path><path d="M268 233H318C346 233 368 255 368 283H318C290 283 268 261 268 233Z " transform="matrix(-0.289799720928929,-0.3453698585498505,0.3453698585498505,-0.289799720928929,321.050887749538,442.59594301851615)" opacity="0.69"></path><path d="M1201 182H1251C1279 182 1301 204 1301 232H1251C1223 232 1201 210 1201 182Z " transform="matrix(-0.383310847167021,-0.12454524402428657,0.12454524402428657,-0.383310847167021,1704.741004292916,442.1514456379558)" opacity="0.62"></path><path d="M1318 181H1368C1396 181 1418 203 1418 231H1368C1340 231 1318 209 1318 181Z " transform="matrix(-0.38247717464848646,-0.04696229194459806,0.04696229194459806,-0.38247717464848646,1881.554542778542,349.03471335779835)" filter="url(#llleaves-blur-2)" opacity="0.59"></path><path d="M17 269H67C95 269 117 291 117 319H67C39 319 17 297 17 269Z " transform="matrix(-0.25767975163942936,-0.38202594215667435,0.38202594215667435,-0.25767975163942936,-28.05108363422049,395.3535851064894)" opacity="0.71"></path><path d="M1039 586H1089C1117 586 1139 608 1139 636H1089C1061 636 1039 614 1039 586Z " transform="matrix(-0.372742958232316,-0.18179888788834406,0.18179888788834406,-0.372742958232316,1383.8379610152138,1036.7249363903518)" opacity="0.64"></path><path d="M1126 454H1176C1204 454 1226 476 1226 504H1176C1148 504 1126 482 1126 454Z " transform="matrix(-0.3780597288653538,-0.16047683392637394,0.16047683392637394,-0.3780597288653538,1543.729837694923,848.8113668239203)" opacity="0.63"></path><path d="M1085 143H1135C1163 143 1185 165 1185 193H1135C1107 193 1085 171 1085 143Z " transform="matrix(-0.3777048944916937,-0.16032621567082975,0.16032621567082975,-0.3777048944916937,1536.760251015373,413.42467706099626)" opacity="0.63"></path><path d="M143 438H193C221 438 243 460 243 488H193C165 488 143 466 143 438Z " transform="matrix(-0.2688431466211856,-0.3700308464519806,0.3700308464519806,-0.2688431466211856,73.56244539062182,658.8903302508412)" opacity="0.70"></path><path d="M640 717H690C718 717 740 739 740 767H690C662 767 640 745 640 717Z " transform="matrix(-0.3622582742874118,-0.21766673093619002,0.21766673093619002,-0.3622582742874118,778.4494949036612,1160.9856838672308)" opacity="0.65"></path><path d="M144 301H194C222 301 244 323 244 351H194C166 351 144 329 144 301Z " transform="matrix(-0.2688431466211856,-0.3700308464519806,0.3700308464519806,-0.2688431466211856,125.52551450116434,485.42885001019073)" opacity="0.70"></path><path d="M751 264H801C829 264 851 286 851 314H801C773 314 751 292 751 264Z " transform="matrix(-0.3660870050780855,-0.20292534053401853,0.20292534053401853,-0.3660870050780855,1035.590267653215,557.3423422353155)" opacity="0.64"></path><path d="M360 709H410C438 709 460 731 460 759H410C382 759 360 737 360 709Z " transform="matrix(-0.31416625948713545,-0.31416625948713534,0.31416625948713534,-0.31416625948713545,308.2101319261682,1093.406200853283)" opacity="0.68"></path><path d="M116 707H166C194 707 216 729 216 757H166C138 757 116 735 116 707Z " transform="matrix(-0.26301247184721893,-0.3756207374169219,0.3756207374169219,-0.26301247184721893,-65.29430946254848,986.8781718033732)" opacity="0.70"></path><path d="M153 159H203C231 159 253 181 253 209H203C175 209 153 187 153 159Z " transform="matrix(-0.2688431466211856,-0.3700308464519806,0.3700308464519806,-0.2688431466211856,189.48948301693625,308.5834008080502)" opacity="0.70"></path></g></svg>